<svg width="47" height="33" viewBox="0 0 47 33" fill="none" xmlns="http://www.w3.org/2000/svg">
<path d="M47 3.80769V29.1923C47 30.2236 46.6229 31.116 45.8687 31.8696C45.1144 32.6232 44.2213 33 43.1892 33H3.81081C2.79195 33 1.9021 32.6232 1.14126 31.8696C0.380419 31.116 0 30.2236 0 29.1923V3.80769C0 2.78966 0.380419 1.90054 1.14126 1.14032C1.9021 0.380108 2.79195 0 3.81081 0H43.1892C44.2213 0 45.1144 0.380108 45.8687 1.14032C46.6229 1.90054 47 2.78966 47 3.80769ZM20.5427 22.4495C20.5427 21.5901 20.4864 20.7969 20.3739 20.0697C20.2615 19.3425 20.0696 18.6385 19.7984 17.9576C19.5271 17.2767 19.1301 16.7413 18.6075 16.3513C18.0848 15.9612 17.453 15.7662 16.712 15.7662C15.6667 16.771 14.4427 17.2734 13.0401 17.2734C11.5846 17.2734 10.354 16.771 9.3484 15.7662C8.6074 15.7662 7.97227 15.9612 7.44299 16.3513C6.91371 16.7413 6.51675 17.2767 6.25211 17.9576C5.98747 18.6385 5.79892 19.3425 5.68644 20.0697C5.57397 20.7969 5.51774 21.5901 5.51774 22.4495C5.51774 23.2957 5.76253 24.0195 6.25211 24.6211C6.74169 25.2227 7.33052 25.5234 8.01858 25.5234H18.0617C18.7497 25.5234 19.3352 25.2227 19.8182 24.6211C20.3012 24.0195 20.5427 23.2957 20.5427 22.4495ZM17.5456 12.0379C17.5456 10.7819 17.1056 9.70763 16.2257 8.8152C15.3458 7.92278 14.2839 7.47656 13.0401 7.47656C11.7963 7.47656 10.7311 7.92278 9.84459 8.8152C8.95805 9.70763 8.51478 10.7819 8.51478 12.0379C8.51478 13.2674 8.95805 14.3218 9.84459 15.201C10.7311 16.0802 11.7963 16.5198 13.0401 16.5198C14.2839 16.5198 15.3458 16.0802 16.2257 15.201C17.1056 14.3218 17.5456 13.2674 17.5456 12.0379ZM41.6212 23.2825V21.7752C41.6212 21.5637 41.5451 21.3852 41.3929 21.2398C41.2408 21.0944 41.0655 21.0216 40.867 21.0216H24.2741C24.0756 21.0216 23.9003 21.0944 23.7481 21.2398C23.5959 21.3852 23.5198 21.5637 23.5198 21.7752V23.2825C23.5198 23.494 23.5959 23.6725 23.7481 23.8179C23.9003 23.9633 24.0756 24.0361 24.2741 24.0361H40.867C41.0655 24.0361 41.2408 23.9633 41.3929 23.8179C41.5451 23.6725 41.6212 23.494 41.6212 23.2825ZM32.6102 17.2734V15.7662C32.6102 15.5547 32.5341 15.3762 32.382 15.2308C32.2298 15.0853 32.0545 15.0126 31.856 15.0126H24.2741C24.0756 15.0126 23.9003 15.0853 23.7481 15.2308C23.5959 15.3762 23.5198 15.5547 23.5198 15.7662V17.2734C23.5198 17.4982 23.5959 17.6833 23.7481 17.8287C23.9003 17.9742 24.0756 18.0469 24.2741 18.0469H31.856C32.0545 18.0469 32.2298 17.9742 32.382 17.8287C32.5341 17.6833 32.6102 17.4982 32.6102 17.2734ZM41.6212 17.2734V15.7662C41.6212 15.5547 41.5451 15.3762 41.3929 15.2308C41.2408 15.0853 41.0655 15.0126 40.867 15.0126H36.3218C36.1101 15.0126 35.9348 15.082 35.7958 15.2209C35.6569 15.3597 35.5874 15.5415 35.5874 15.7662V17.2734C35.5874 17.4982 35.6569 17.6833 35.7958 17.8287C35.9348 17.9742 36.1101 18.0469 36.3218 18.0469H40.867C41.0655 18.0469 41.2408 17.9742 41.3929 17.8287C41.5451 17.6833 41.6212 17.4982 41.6212 17.2734ZM41.6212 11.2644V9.75721C41.6212 9.54567 41.5451 9.36719 41.3929 9.22176C41.2408 9.07632 41.0655 9.00361 40.867 9.00361H24.2741C24.0756 9.00361 23.9003 9.07632 23.7481 9.22176C23.5959 9.36719 23.5198 9.54567 23.5198 9.75721V11.2644C23.5198 11.476 23.5959 11.6578 23.7481 11.8098C23.9003 11.9618 24.0756 12.0379 24.2741 12.0379H40.867C41.0655 12.0379 41.2408 11.9618 41.3929 11.8098C41.5451 11.6578 41.6212 11.476 41.6212 11.2644Z" fill="#1A946F"/>
</svg>
