<svg width="354" height="51" viewBox="0 0 354 51" fill="none" xmlns="http://www.w3.org/2000/svg">
<path d="M11.707 14.3828H4.69922V19.6328H12.8906V22H1.73438V4.9375H12.8086V7.32812H4.69922V12.0391H11.707V14.3828ZM18.0106 22H15.1629V4H18.0106V22ZM26.6579 22.2344C24.8532 22.2344 23.3884 21.668 22.2634 20.5352C21.1462 19.3945 20.5876 17.8789 20.5876 15.9883V15.6367C20.5876 14.3711 20.8298 13.2422 21.3142 12.25C21.8063 11.25 22.4938 10.4727 23.3767 9.91797C24.2595 9.36328 25.2438 9.08594 26.3298 9.08594C28.0563 9.08594 29.3884 9.63672 30.3259 10.7383C31.2712 11.8398 31.7438 13.3984 31.7438 15.4141V16.5625H23.4587C23.5446 17.6094 23.8923 18.4375 24.5017 19.0469C25.1188 19.6562 25.8923 19.9609 26.822 19.9609C28.1267 19.9609 29.1892 19.4336 30.0095 18.3789L31.5446 19.8438C31.0368 20.6016 30.3571 21.1914 29.5056 21.6133C28.6618 22.0273 27.7126 22.2344 26.6579 22.2344ZM26.3181 11.3711C25.5368 11.3711 24.904 11.6445 24.4196 12.1914C23.9431 12.7383 23.6384 13.5 23.5056 14.4766H28.9313V14.2656C28.8688 13.3125 28.6149 12.5938 28.1696 12.1094C27.7243 11.6172 27.1071 11.3711 26.3181 11.3711ZM39.1255 19.9609C39.8365 19.9609 40.4263 19.7539 40.8951 19.3398C41.3638 18.9258 41.6138 18.4141 41.6451 17.8047H44.3287C44.2974 18.5938 44.0513 19.332 43.5904 20.0195C43.1294 20.6992 42.5044 21.2383 41.7154 21.6367C40.9263 22.0352 40.0747 22.2344 39.1607 22.2344C37.3872 22.2344 35.981 21.6602 34.9419 20.5117C33.9029 19.3633 33.3833 17.7773 33.3833 15.7539V15.4609C33.3833 13.5312 33.899 11.9883 34.9302 10.832C35.9615 9.66797 37.3677 9.08594 39.149 9.08594C40.6568 9.08594 41.8833 9.52734 42.8287 10.4102C43.7818 11.2852 44.2818 12.4375 44.3287 13.8672H41.6451C41.6138 13.1406 41.3638 12.543 40.8951 12.0742C40.4341 11.6055 39.8443 11.3711 39.1255 11.3711C38.2037 11.3711 37.4927 11.707 36.9927 12.3789C36.4927 13.043 36.2388 14.0547 36.231 15.4141V15.8711C36.231 17.2461 36.4771 18.2734 36.9693 18.9531C37.4693 19.625 38.188 19.9609 39.1255 19.9609ZM49.9994 6.23828V9.32031H52.2377V11.4297H49.9994V18.5078C49.9994 18.9922 50.0932 19.3438 50.2807 19.5625C50.476 19.7734 50.8197 19.8789 51.3119 19.8789C51.64 19.8789 51.9721 19.8398 52.308 19.7617V21.9648C51.6596 22.1445 51.0346 22.2344 50.433 22.2344C48.2455 22.2344 47.1517 21.0273 47.1517 18.6133V11.4297H45.0658V9.32031H47.1517V6.23828H49.9994ZM57.4045 22H54.5569V9.32031H57.4045V22ZM54.3811 6.02734C54.3811 5.58984 54.5178 5.22656 54.7912 4.9375C55.0725 4.64844 55.4709 4.50391 55.9866 4.50391C56.5022 4.50391 56.9006 4.64844 57.1819 4.9375C57.4631 5.22656 57.6037 5.58984 57.6037 6.02734C57.6037 6.45703 57.4631 6.81641 57.1819 7.10547C56.9006 7.38672 56.5022 7.52734 55.9866 7.52734C55.4709 7.52734 55.0725 7.38672 54.7912 7.10547C54.5178 6.81641 54.3811 6.45703 54.3811 6.02734ZM59.9347 15.543C59.9347 14.3008 60.1808 13.1836 60.6729 12.1914C61.1651 11.1914 61.8565 10.4258 62.7472 9.89453C63.6378 9.35547 64.6612 9.08594 65.8175 9.08594C67.5284 9.08594 68.9151 9.63672 69.9776 10.7383C71.0479 11.8398 71.6261 13.3008 71.712 15.1211L71.7237 15.7891C71.7237 17.0391 71.4815 18.1562 70.9972 19.1406C70.5206 20.125 69.8331 20.8867 68.9347 21.4258C68.044 21.9648 67.0128 22.2344 65.8409 22.2344C64.0518 22.2344 62.6183 21.6406 61.5401 20.4531C60.4698 19.2578 59.9347 17.668 59.9347 15.6836V15.543ZM62.7823 15.7891C62.7823 17.0938 63.0518 18.1172 63.5909 18.8594C64.13 19.5938 64.88 19.9609 65.8409 19.9609C66.8018 19.9609 67.5479 19.5859 68.0792 18.8359C68.6183 18.0859 68.8878 16.9883 68.8878 15.543C68.8878 14.2617 68.6104 13.2461 68.0558 12.4961C67.5089 11.7461 66.7628 11.3711 65.8175 11.3711C64.8878 11.3711 64.1495 11.7422 63.6026 12.4844C63.0558 13.2188 62.7823 14.3203 62.7823 15.7891ZM76.7265 9.32031L76.8085 10.7852C77.746 9.65234 78.9765 9.08594 80.4999 9.08594C83.1406 9.08594 84.4843 10.5977 84.5312 13.6211V22H81.6835V13.7852C81.6835 12.9805 81.5078 12.3867 81.1562 12.0039C80.8124 11.6133 80.246 11.418 79.457 11.418C78.3085 11.418 77.4531 11.9375 76.8906 12.9766V22H74.0429V9.32031H76.7265ZM106.619 16.4453C106.447 18.2656 105.775 19.6875 104.603 20.7109C103.431 21.7266 101.873 22.2344 99.9274 22.2344C98.568 22.2344 97.3688 21.9141 96.3297 21.2734C95.2985 20.625 94.5016 19.707 93.9391 18.5195C93.3766 17.332 93.0836 15.9531 93.0602 14.3828V12.7891C93.0602 11.1797 93.3453 9.76172 93.9157 8.53516C94.486 7.30859 95.3024 6.36328 96.3649 5.69922C97.4352 5.03516 98.6696 4.70312 100.068 4.70312C101.951 4.70312 103.466 5.21484 104.615 6.23828C105.763 7.26172 106.431 8.70703 106.619 10.5742H103.666C103.525 9.34766 103.166 8.46484 102.588 7.92578C102.017 7.37891 101.177 7.10547 100.068 7.10547C98.7789 7.10547 97.7868 7.57812 97.0914 8.52344C96.4039 9.46094 96.0524 10.8398 96.0368 12.6602V14.1719C96.0368 16.0156 96.3649 17.4219 97.0211 18.3906C97.6852 19.3594 98.6539 19.8438 99.9274 19.8438C101.091 19.8438 101.966 19.582 102.552 19.0586C103.138 18.5352 103.509 17.6641 103.666 16.4453H106.619ZM108.422 15.543C108.422 14.3008 108.668 13.1836 109.161 12.1914C109.653 11.1914 110.344 10.4258 111.235 9.89453C112.125 9.35547 113.149 9.08594 114.305 9.08594C116.016 9.08594 117.403 9.63672 118.465 10.7383C119.536 11.8398 120.114 13.3008 120.2 15.1211L120.211 15.7891C120.211 17.0391 119.969 18.1562 119.485 19.1406C119.008 20.125 118.321 20.8867 117.422 21.4258C116.532 21.9648 115.5 22.2344 114.329 22.2344C112.54 22.2344 111.106 21.6406 110.028 20.4531C108.957 19.2578 108.422 17.668 108.422 15.6836V15.543ZM111.27 15.7891C111.27 17.0938 111.54 18.1172 112.079 18.8594C112.618 19.5938 113.368 19.9609 114.329 19.9609C115.29 19.9609 116.036 19.5859 116.567 18.8359C117.106 18.0859 117.375 16.9883 117.375 15.543C117.375 14.2617 117.098 13.2461 116.543 12.4961C115.997 11.7461 115.25 11.3711 114.305 11.3711C113.375 11.3711 112.637 11.7422 112.09 12.4844C111.543 13.2188 111.27 14.3203 111.27 15.7891ZM125.249 9.32031L125.331 10.6445C126.222 9.60547 127.441 9.08594 128.988 9.08594C130.683 9.08594 131.843 9.73438 132.468 11.0312C133.39 9.73438 134.687 9.08594 136.359 9.08594C137.757 9.08594 138.796 9.47266 139.476 10.2461C140.163 11.0195 140.515 12.1602 140.531 13.668V22H137.683V13.75C137.683 12.9453 137.507 12.3555 137.156 11.9805C136.804 11.6055 136.222 11.418 135.41 11.418C134.761 11.418 134.23 11.5938 133.816 11.9453C133.41 12.2891 133.124 12.7422 132.96 13.3047L132.972 22H130.124V13.6562C130.085 12.1641 129.324 11.418 127.839 11.418C126.699 11.418 125.89 11.8828 125.413 12.8125V22H122.566V9.32031H125.249ZM146.084 9.32031L146.166 10.6445C147.057 9.60547 148.276 9.08594 149.822 9.08594C151.518 9.08594 152.678 9.73438 153.303 11.0312C154.225 9.73438 155.522 9.08594 157.194 9.08594C158.592 9.08594 159.631 9.47266 160.311 10.2461C160.998 11.0195 161.35 12.1602 161.365 13.668V22H158.518V13.75C158.518 12.9453 158.342 12.3555 157.99 11.9805C157.639 11.6055 157.057 11.418 156.244 11.418C155.596 11.418 155.065 11.5938 154.651 11.9453C154.244 12.2891 153.959 12.7422 153.795 13.3047L153.807 22H150.959V13.6562C150.92 12.1641 150.158 11.418 148.674 11.418C147.533 11.418 146.725 11.8828 146.248 12.8125V22H143.401V9.32031H146.084ZM167.271 22H164.423V9.32031H167.271V22ZM164.247 6.02734C164.247 5.58984 164.384 5.22656 164.657 4.9375C164.939 4.64844 165.337 4.50391 165.853 4.50391C166.368 4.50391 166.767 4.64844 167.048 4.9375C167.329 5.22656 167.47 5.58984 167.47 6.02734C167.47 6.45703 167.329 6.81641 167.048 7.10547C166.767 7.38672 166.368 7.52734 165.853 7.52734C165.337 7.52734 164.939 7.38672 164.657 7.10547C164.384 6.81641 164.247 6.45703 164.247 6.02734ZM177.441 18.5547C177.441 18.0469 177.23 17.6602 176.808 17.3945C176.394 17.1289 175.703 16.8945 174.734 16.6914C173.766 16.4883 172.957 16.2305 172.308 15.918C170.887 15.2305 170.176 14.2344 170.176 12.9297C170.176 11.8359 170.637 10.9219 171.558 10.1875C172.48 9.45312 173.652 9.08594 175.074 9.08594C176.59 9.08594 177.812 9.46094 178.742 10.2109C179.68 10.9609 180.148 11.9336 180.148 13.1289H177.301C177.301 12.582 177.098 12.1289 176.691 11.7695C176.285 11.4023 175.746 11.2188 175.074 11.2188C174.449 11.2188 173.937 11.3633 173.539 11.6523C173.148 11.9414 172.953 12.3281 172.953 12.8125C172.953 13.25 173.137 13.5898 173.504 13.832C173.871 14.0742 174.613 14.3203 175.73 14.5703C176.848 14.8125 177.723 15.1055 178.355 15.4492C178.996 15.7852 179.469 16.1914 179.773 16.668C180.086 17.1445 180.242 17.7227 180.242 18.4023C180.242 19.543 179.769 20.4688 178.824 21.1797C177.879 21.8828 176.641 22.2344 175.109 22.2344C174.07 22.2344 173.144 22.0469 172.332 21.6719C171.519 21.2969 170.887 20.7812 170.433 20.125C169.98 19.4688 169.754 18.7617 169.754 18.0039H172.519C172.558 18.6758 172.812 19.1953 173.281 19.5625C173.75 19.9219 174.371 20.1016 175.144 20.1016C175.894 20.1016 176.465 19.9609 176.855 19.6797C177.246 19.3906 177.441 19.0156 177.441 18.5547ZM189.792 18.5547C189.792 18.0469 189.581 17.6602 189.159 17.3945C188.745 17.1289 188.053 16.8945 187.085 16.6914C186.116 16.4883 185.307 16.2305 184.659 15.918C183.237 15.2305 182.526 14.2344 182.526 12.9297C182.526 11.8359 182.987 10.9219 183.909 10.1875C184.831 9.45312 186.003 9.08594 187.425 9.08594C188.94 9.08594 190.163 9.46094 191.092 10.2109C192.03 10.9609 192.499 11.9336 192.499 13.1289H189.651C189.651 12.582 189.448 12.1289 189.042 11.7695C188.635 11.4023 188.096 11.2188 187.425 11.2188C186.8 11.2188 186.288 11.3633 185.889 11.6523C185.499 11.9414 185.303 12.3281 185.303 12.8125C185.303 13.25 185.487 13.5898 185.854 13.832C186.221 14.0742 186.964 14.3203 188.081 14.5703C189.198 14.8125 190.073 15.1055 190.706 15.4492C191.346 15.7852 191.819 16.1914 192.124 16.668C192.436 17.1445 192.592 17.7227 192.592 18.4023C192.592 19.543 192.12 20.4688 191.175 21.1797C190.229 21.8828 188.991 22.2344 187.46 22.2344C186.421 22.2344 185.495 22.0469 184.682 21.6719C183.87 21.2969 183.237 20.7812 182.784 20.125C182.331 19.4688 182.104 18.7617 182.104 18.0039H184.87C184.909 18.6758 185.163 19.1953 185.632 19.5625C186.1 19.9219 186.721 20.1016 187.495 20.1016C188.245 20.1016 188.815 19.9609 189.206 19.6797C189.596 19.3906 189.792 19.0156 189.792 18.5547ZM198.064 22H195.216V9.32031H198.064V22ZM195.041 6.02734C195.041 5.58984 195.177 5.22656 195.451 4.9375C195.732 4.64844 196.13 4.50391 196.646 4.50391C197.162 4.50391 197.56 4.64844 197.841 4.9375C198.123 5.22656 198.263 5.58984 198.263 6.02734C198.263 6.45703 198.123 6.81641 197.841 7.10547C197.56 7.38672 197.162 7.52734 196.646 7.52734C196.13 7.52734 195.732 7.38672 195.451 7.10547C195.177 6.81641 195.041 6.45703 195.041 6.02734ZM200.594 15.543C200.594 14.3008 200.84 13.1836 201.332 12.1914C201.825 11.1914 202.516 10.4258 203.407 9.89453C204.297 9.35547 205.321 9.08594 206.477 9.08594C208.188 9.08594 209.575 9.63672 210.637 10.7383C211.707 11.8398 212.286 13.3008 212.372 15.1211L212.383 15.7891C212.383 17.0391 212.141 18.1562 211.657 19.1406C211.18 20.125 210.493 20.8867 209.594 21.4258C208.704 21.9648 207.672 22.2344 206.5 22.2344C204.711 22.2344 203.278 21.6406 202.2 20.4531C201.129 19.2578 200.594 17.668 200.594 15.6836V15.543ZM203.442 15.7891C203.442 17.0938 203.711 18.1172 204.25 18.8594C204.789 19.5938 205.539 19.9609 206.5 19.9609C207.461 19.9609 208.207 19.5859 208.739 18.8359C209.278 18.0859 209.547 16.9883 209.547 15.543C209.547 14.2617 209.27 13.2461 208.715 12.4961C208.168 11.7461 207.422 11.3711 206.477 11.3711C205.547 11.3711 204.809 11.7422 204.262 12.4844C203.715 13.2188 203.442 14.3203 203.442 15.7891ZM217.386 9.32031L217.468 10.7852C218.406 9.65234 219.636 9.08594 221.159 9.08594C223.8 9.08594 225.144 10.5977 225.191 13.6211V22H222.343V13.7852C222.343 12.9805 222.167 12.3867 221.816 12.0039C221.472 11.6133 220.906 11.418 220.116 11.418C218.968 11.418 218.113 11.9375 217.55 12.9766V22H214.702V9.32031H217.386ZM233.45 15.543C233.45 14.3008 233.696 13.1836 234.188 12.1914C234.681 11.1914 235.372 10.4258 236.263 9.89453C237.153 9.35547 238.177 9.08594 239.333 9.08594C241.044 9.08594 242.431 9.63672 243.493 10.7383C244.563 11.8398 245.142 13.3008 245.227 15.1211L245.239 15.7891C245.239 17.0391 244.997 18.1562 244.513 19.1406C244.036 20.125 243.349 20.8867 242.45 21.4258C241.56 21.9648 240.528 22.2344 239.356 22.2344C237.567 22.2344 236.134 21.6406 235.056 20.4531C233.985 19.2578 233.45 17.668 233.45 15.6836V15.543ZM236.298 15.7891C236.298 17.0938 236.567 18.1172 237.106 18.8594C237.645 19.5938 238.395 19.9609 239.356 19.9609C240.317 19.9609 241.063 19.5859 241.595 18.8359C242.134 18.0859 242.403 16.9883 242.403 15.543C242.403 14.2617 242.126 13.2461 241.571 12.4961C241.024 11.7461 240.278 11.3711 239.333 11.3711C238.403 11.3711 237.665 11.7422 237.118 12.4844C236.571 13.2188 236.298 14.3203 236.298 15.7891ZM248.601 22V11.4297H246.668V9.32031H248.601V8.16016C248.601 6.75391 248.992 5.66797 249.773 4.90234C250.555 4.13672 251.648 3.75391 253.055 3.75391C253.555 3.75391 254.086 3.82422 254.648 3.96484L254.578 6.19141C254.265 6.12891 253.902 6.09766 253.488 6.09766C252.129 6.09766 251.449 6.79688 251.449 8.19531V9.32031H254.027V11.4297H251.449V22H248.601ZM265.228 15.6602V22H262.263V4.9375H268.791C270.697 4.9375 272.208 5.43359 273.326 6.42578C274.451 7.41797 275.013 8.73047 275.013 10.3633C275.013 12.0352 274.462 13.3359 273.361 14.2656C272.267 15.1953 270.732 15.6602 268.755 15.6602H265.228ZM265.228 13.2812H268.791C269.845 13.2812 270.65 13.0352 271.205 12.543C271.759 12.043 272.037 11.3242 272.037 10.3867C272.037 9.46484 271.755 8.73047 271.193 8.18359C270.63 7.62891 269.857 7.34375 268.873 7.32812H265.228V13.2812ZM284.727 22C284.602 21.7578 284.493 21.3633 284.399 20.8164C283.493 21.7617 282.383 22.2344 281.071 22.2344C279.797 22.2344 278.758 21.8711 277.953 21.1445C277.149 20.418 276.746 19.5195 276.746 18.4492C276.746 17.0977 277.246 16.0625 278.246 15.3438C279.254 14.6172 280.692 14.2539 282.559 14.2539H284.305V13.4219C284.305 12.7656 284.121 12.2422 283.754 11.8516C283.387 11.4531 282.828 11.2539 282.078 11.2539C281.43 11.2539 280.899 11.418 280.485 11.7461C280.071 12.0664 279.864 12.4766 279.864 12.9766H277.016C277.016 12.2812 277.246 11.6328 277.707 11.0312C278.168 10.4219 278.793 9.94531 279.582 9.60156C280.379 9.25781 281.266 9.08594 282.243 9.08594C283.727 9.08594 284.91 9.46094 285.793 10.2109C286.676 10.9531 287.129 12 287.153 13.3516V19.0703C287.153 20.2109 287.313 21.1211 287.633 21.8008V22H284.727ZM281.598 19.9492C282.16 19.9492 282.688 19.8125 283.18 19.5391C283.68 19.2656 284.055 18.8984 284.305 18.4375V16.0469H282.77C281.715 16.0469 280.922 16.2305 280.391 16.5977C279.86 16.9648 279.594 17.4844 279.594 18.1562C279.594 18.7031 279.774 19.1406 280.133 19.4688C280.5 19.7891 280.989 19.9492 281.598 19.9492ZM294.206 16.5625L292.941 17.8633V22H290.093V4H292.941V14.3828L293.831 13.2695L297.335 9.32031H300.757L296.046 14.6055L301.261 22H297.968L294.206 16.5625ZM305.607 22H302.76V9.32031H305.607V22ZM302.584 6.02734C302.584 5.58984 302.721 5.22656 302.994 4.9375C303.275 4.64844 303.674 4.50391 304.19 4.50391C304.705 4.50391 305.104 4.64844 305.385 4.9375C305.666 5.22656 305.807 5.58984 305.807 6.02734C305.807 6.45703 305.666 6.81641 305.385 7.10547C305.104 7.38672 304.705 7.52734 304.19 7.52734C303.674 7.52734 303.275 7.38672 302.994 7.10547C302.721 6.81641 302.584 6.45703 302.584 6.02734ZM315.778 18.5547C315.778 18.0469 315.567 17.6602 315.145 17.3945C314.731 17.1289 314.04 16.8945 313.071 16.6914C312.102 16.4883 311.294 16.2305 310.645 15.918C309.224 15.2305 308.513 14.2344 308.513 12.9297C308.513 11.8359 308.974 10.9219 309.895 10.1875C310.817 9.45312 311.989 9.08594 313.411 9.08594C314.927 9.08594 316.149 9.46094 317.079 10.2109C318.017 10.9609 318.485 11.9336 318.485 13.1289H315.638C315.638 12.582 315.434 12.1289 315.028 11.7695C314.622 11.4023 314.083 11.2188 313.411 11.2188C312.786 11.2188 312.274 11.3633 311.876 11.6523C311.485 11.9414 311.29 12.3281 311.29 12.8125C311.29 13.25 311.474 13.5898 311.841 13.832C312.208 14.0742 312.95 14.3203 314.067 14.5703C315.184 14.8125 316.059 15.1055 316.692 15.4492C317.333 15.7852 317.806 16.1914 318.11 16.668C318.423 17.1445 318.579 17.7227 318.579 18.4023C318.579 19.543 318.106 20.4688 317.161 21.1797C316.216 21.8828 314.977 22.2344 313.446 22.2344C312.407 22.2344 311.481 22.0469 310.669 21.6719C309.856 21.2969 309.224 20.7812 308.77 20.125C308.317 19.4688 308.091 18.7617 308.091 18.0039H310.856C310.895 18.6758 311.149 19.1953 311.618 19.5625C312.087 19.9219 312.708 20.1016 313.481 20.1016C314.231 20.1016 314.802 19.9609 315.192 19.6797C315.583 19.3906 315.778 19.0156 315.778 18.5547ZM324.59 6.23828V9.32031H326.828V11.4297H324.59V18.5078C324.59 18.9922 324.683 19.3438 324.871 19.5625C325.066 19.7734 325.41 19.8789 325.902 19.8789C326.23 19.8789 326.562 19.8398 326.898 19.7617V21.9648C326.25 22.1445 325.625 22.2344 325.023 22.2344C322.836 22.2344 321.742 21.0273 321.742 18.6133V11.4297H319.656V9.32031H321.742V6.23828H324.59ZM336.542 22C336.417 21.7578 336.307 21.3633 336.213 20.8164C335.307 21.7617 334.198 22.2344 332.885 22.2344C331.612 22.2344 330.573 21.8711 329.768 21.1445C328.963 20.418 328.561 19.5195 328.561 18.4492C328.561 17.0977 329.061 16.0625 330.061 15.3438C331.069 14.6172 332.506 14.2539 334.374 14.2539H336.12V13.4219C336.12 12.7656 335.936 12.2422 335.569 11.8516C335.202 11.4531 334.643 11.2539 333.893 11.2539C333.245 11.2539 332.713 11.418 332.299 11.7461C331.885 12.0664 331.678 12.4766 331.678 12.9766H328.831C328.831 12.2812 329.061 11.6328 329.522 11.0312C329.983 10.4219 330.608 9.94531 331.397 9.60156C332.194 9.25781 333.081 9.08594 334.057 9.08594C335.542 9.08594 336.725 9.46094 337.608 10.2109C338.491 10.9531 338.944 12 338.967 13.3516V19.0703C338.967 20.2109 339.128 21.1211 339.448 21.8008V22H336.542ZM333.413 19.9492C333.975 19.9492 334.503 19.8125 334.995 19.5391C335.495 19.2656 335.87 18.8984 336.12 18.4375V16.0469H334.585C333.53 16.0469 332.737 16.2305 332.206 16.5977C331.674 16.9648 331.409 17.4844 331.409 18.1562C331.409 18.7031 331.588 19.1406 331.948 19.4688C332.315 19.7891 332.803 19.9492 333.413 19.9492ZM344.544 9.32031L344.626 10.7852C345.564 9.65234 346.794 9.08594 348.318 9.08594C350.958 9.08594 352.302 10.5977 352.349 13.6211V22H349.501V13.7852C349.501 12.9805 349.326 12.3867 348.974 12.0039C348.63 11.6133 348.064 11.418 347.275 11.418C346.126 11.418 345.271 11.9375 344.708 12.9766V22H341.861V9.32031H344.544Z" fill="white"/>
<path d="M43.7109 42.1797H39.1328V47H37.1562V35.625H44.3828V37.2188H39.1328V40.6016H43.7109V42.1797ZM50.1328 42.6172H47.9297V47H45.9531V35.625H49.9531C51.2656 35.625 52.2786 35.9193 52.9922 36.5078C53.7057 37.0964 54.0625 37.9479 54.0625 39.0625C54.0625 39.8229 53.8776 40.4609 53.5078 40.9766C53.1432 41.487 52.6328 41.8802 51.9766 42.1562L54.5312 46.8984V47H52.4141L50.1328 42.6172ZM47.9297 41.0312H49.9609C50.6276 41.0312 51.1484 40.8646 51.5234 40.5312C51.8984 40.1927 52.0859 39.7318 52.0859 39.1484C52.0859 38.5391 51.9115 38.0677 51.5625 37.7344C51.2188 37.401 50.7031 37.2292 50.0156 37.2188H47.9297V41.0312ZM62.5859 41.9219H57.9141V45.4219H63.375V47H55.9375V35.625H63.3203V37.2188H57.9141V40.3594H62.5859V41.9219ZM71.6328 41.9219H66.9609V45.4219H72.4219V47H64.9844V35.625H72.3672V37.2188H66.9609V40.3594H71.6328V41.9219Z" fill="white"/>
<path d="M151.711 42.1797H147.133V47H145.156V35.625H152.383V37.2188H147.133V40.6016H151.711V42.1797ZM158.82 44.3516H154.414L153.492 47H151.438L155.734 35.625H157.508L161.812 47H159.75L158.82 44.3516ZM154.969 42.7578H158.266L156.617 38.0391L154.969 42.7578ZM165.195 47H163.227V35.625H165.195V47ZM171.805 42.6172H169.602V47H167.625V35.625H171.625C172.938 35.625 173.951 35.9193 174.664 36.5078C175.378 37.0964 175.734 37.9479 175.734 39.0625C175.734 39.8229 175.549 40.4609 175.18 40.9766C174.815 41.487 174.305 41.8802 173.648 42.1562L176.203 46.8984V47H174.086L171.805 42.6172ZM169.602 41.0312H171.633C172.299 41.0312 172.82 40.8646 173.195 40.5312C173.57 40.1927 173.758 39.7318 173.758 39.1484C173.758 38.5391 173.583 38.0677 173.234 37.7344C172.891 37.401 172.375 37.2292 171.688 37.2188H169.602V41.0312Z" fill="white"/>
<path d="M250.242 47H248.273V35.625H250.242V47ZM255.234 35.625L258.516 44.3438L261.789 35.625H264.344V47H262.375V43.25L262.57 38.2344L259.211 47H257.797L254.445 38.2422L254.641 43.25V47H252.672V35.625H255.234ZM268.664 42.7734V47H266.688V35.625H271.039C272.31 35.625 273.318 35.9557 274.062 36.6172C274.812 37.2786 275.188 38.1536 275.188 39.2422C275.188 40.3568 274.82 41.224 274.086 41.8438C273.357 42.4635 272.333 42.7734 271.016 42.7734H268.664ZM268.664 41.1875H271.039C271.742 41.1875 272.279 41.0234 272.648 40.6953C273.018 40.362 273.203 39.8828 273.203 39.2578C273.203 38.6432 273.016 38.1536 272.641 37.7891C272.266 37.4193 271.75 37.2292 271.094 37.2188H268.664V41.1875ZM281.898 44.3516H277.492L276.57 47H274.516L278.812 35.625H280.586L284.891 47H282.828L281.898 44.3516ZM278.047 42.7578H281.344L279.695 38.0391L278.047 42.7578ZM290.367 42.6172H288.164V47H286.188V35.625H290.188C291.5 35.625 292.513 35.9193 293.227 36.5078C293.94 37.0964 294.297 37.9479 294.297 39.0625C294.297 39.8229 294.112 40.4609 293.742 40.9766C293.378 41.487 292.867 41.8802 292.211 42.1562L294.766 46.8984V47H292.648L290.367 42.6172ZM288.164 41.0312H290.195C290.862 41.0312 291.383 40.8646 291.758 40.5312C292.133 40.1927 292.32 39.7318 292.32 39.1484C292.32 38.5391 292.146 38.0677 291.797 37.7344C291.453 37.401 290.938 37.2292 290.25 37.2188H288.164V41.0312ZM304 37.2188H300.453V47H298.492V37.2188H294.977V35.625H304V37.2188ZM307.586 47H305.617V35.625H307.586V47ZM316.523 44.3516H312.117L311.195 47H309.141L313.438 35.625H315.211L319.516 47H317.453L316.523 44.3516ZM312.672 42.7578H315.969L314.32 38.0391L312.672 42.7578ZM322.789 45.4219H327.953V47H320.812V35.625H322.789V45.4219Z" fill="white"/>
</svg>
