<svg width="86" height="86" viewBox="0 0 86 86" fill="none" xmlns="http://www.w3.org/2000/svg">
<circle cx="43" cy="43" r="43" fill="#0CAE7D"/>
<path d="M59.2607 51.6245V56.6416C59.2626 57.1074 59.1672 57.5684 58.9806 57.9952C58.794 58.4219 58.5203 58.805 58.1771 59.1199C57.8339 59.4348 57.4287 59.6745 56.9875 59.8237C56.5463 59.9729 56.0788 60.0283 55.6149 59.9864C50.4687 59.4272 45.5254 57.6687 41.1822 54.8522C37.1414 52.2845 33.7155 48.8586 31.1478 44.8178C28.3214 40.4549 26.5625 35.4876 26.0136 30.3182C25.9718 29.8557 26.0267 29.3896 26.175 28.9496C26.3232 28.5095 26.5614 28.1051 26.8745 27.7622C27.1875 27.4192 27.5686 27.1452 27.9933 26.9576C28.4181 26.7699 28.8773 26.6728 29.3416 26.6724H34.3588C35.1704 26.6644 35.9573 26.9518 36.5727 27.481C37.188 28.0103 37.59 28.7452 37.7036 29.5489C37.9154 31.1545 38.3081 32.731 38.8743 34.2483C39.0993 34.8469 39.148 35.4975 39.0146 36.1229C38.8812 36.7483 38.5713 37.3224 38.1217 37.7771L35.9978 39.901C38.3785 44.0879 41.8452 47.5546 46.0321 49.9354L48.156 47.8114C48.6107 47.3618 49.1848 47.0519 49.8102 46.9185C50.4356 46.7851 51.0862 46.8338 51.6848 47.0588C53.2021 47.625 54.7786 48.0178 56.3842 48.2295C57.1966 48.3441 57.9385 48.7533 58.4689 49.3793C58.9993 50.0052 59.2811 50.8043 59.2607 51.6245Z" fill="white"/>
<path d="M47.6376 31.6896C49.2711 32.0083 50.7723 32.8072 51.9491 33.984C53.126 35.1608 53.9248 36.662 54.2435 38.2955M47.6376 25C51.0313 25.377 54.196 26.8968 56.612 29.3098C59.0281 31.7227 60.5518 34.8855 60.9331 38.2788M59.2607 51.6245V56.6416C59.2626 57.1074 59.1672 57.5684 58.9806 57.9952C58.794 58.4219 58.5203 58.805 58.1771 59.1199C57.8339 59.4348 57.4287 59.6745 56.9875 59.8237C56.5463 59.9729 56.0788 60.0283 55.6149 59.9864C50.4687 59.4272 45.5254 57.6687 41.1822 54.8522C37.1414 52.2845 33.7155 48.8586 31.1478 44.8178C28.3214 40.4549 26.5625 35.4876 26.0136 30.3182C25.9718 29.8557 26.0267 29.3896 26.175 28.9496C26.3232 28.5095 26.5614 28.1051 26.8745 27.7622C27.1875 27.4192 27.5686 27.1452 27.9933 26.9576C28.4181 26.7699 28.8773 26.6728 29.3416 26.6724H34.3588C35.1704 26.6644 35.9573 26.9518 36.5727 27.481C37.188 28.0103 37.59 28.7452 37.7036 29.5489C37.9154 31.1545 38.3081 32.731 38.8743 34.2483C39.0993 34.8469 39.148 35.4975 39.0146 36.1229C38.8812 36.7483 38.5713 37.3224 38.1217 37.7771L35.9978 39.901C38.3785 44.0879 41.8452 47.5546 46.0321 49.9354L48.156 47.8114C48.6107 47.3618 49.1848 47.0519 49.8102 46.9185C50.4356 46.7851 51.0862 46.8338 51.6848 47.0588C53.2021 47.625 54.7786 48.0178 56.3842 48.2295C57.1966 48.3441 57.9385 48.7533 58.4689 49.3793C58.9993 50.0052 59.2811 50.8043 59.2607 51.6245Z" stroke="white" stroke-width="2" stroke-linecap="round" stroke-linejoin="round"/>
</svg>
