<svg width="457" height="368" viewBox="0 0 457 368" fill="none" xmlns="http://www.w3.org/2000/svg">
<path d="M194.858 36.7204C58.2842 7.88053 11.5853 23.1142 0 125.433C0.709482 206.578 12.6546 246.953 44.9673 314.082C74.1753 374.761 133.518 383.207 222.695 344.544C252.873 326.606 283.404 314.089 385.969 301.012C443.785 297.805 480.187 244.898 440.037 200.007C402.749 165.762 400.037 141.371 407.918 100.85C419.16 24.1847 367.768 -26.0505 282.652 14.2751C240.525 38.7126 222.478 41.2766 194.858 36.7204Z" fill="#D2D9D7" fill-opacity="0.36"/>
<path d="M20 255.673L77.1939 223.034C77.1939 223.034 95.3507 206.714 105.337 156.849C115.323 106.984 105.337 115.144 115.323 99.7307C125.309 84.3177 136.203 61.6517 136.203 56.2118C136.651 51.0314 138.74 46.1283 142.169 42.2151C145.597 38.302 150.186 35.5827 155.268 34.4524C169.793 30.8258 206.107 0 206.107 0C206.107 0 225.172 17.2262 201.568 39.8923C177.964 62.5583 173.425 63.465 173.425 63.465L166.162 110.61L179.78 124.21H188.858L190.674 306.445C190.674 306.445 175.241 323.671 144.374 321.858C113.507 320.045 82.5 357 82.5 357C47.0733 325.029 31.7312 303.983 20 255.673Z" fill="#F7BE89" fill-opacity="0.8"/>
<path d="M192.126 299.591L174.805 244.286C178.905 220.486 180.366 196.308 179.162 172.189C177.347 130.484 166.162 110.538 166.162 110.538L179.78 124.21L186.244 124.754L192.126 299.591Z" fill="#F4B078" fill-opacity="0.8"/>
<path d="M207.014 9.06641C206.823 6.39316 205.779 3.85136 204.037 1.81327C199.97 5.18598 190.419 12.9831 180.36 20.1637L185.226 23.21L207.014 9.06641Z" fill="#FFD7B6" fill-opacity="0.8"/>
<path d="M327.828 291.757C327.828 303.399 319.585 312.937 309.672 312.937H200.731C190.672 312.937 182.574 303.399 182.574 291.757V68.1794C182.574 56.5381 190.817 47.0003 200.731 47.0003H309.672C319.731 47.0003 327.828 56.5381 327.828 68.1794V291.757Z" fill="#595959"/>
<path d="M309.529 47.1454H245.145L253.678 74.5985H315.811V178.935L327.831 217.594V68.1795C327.831 56.5382 319.587 47.1454 309.529 47.1454Z" fill="url(#paint0_linear)"/>
<path d="M315.812 74.4536H194.234V285.52H315.812V74.4536Z" fill="white"/>
<path d="M276.738 57.2998C276.798 58.1216 276.53 58.9338 275.992 59.5589C275.455 60.1841 274.691 60.5714 273.869 60.6363H239.952C239.126 60.5712 238.36 60.1852 237.816 59.5612C237.273 58.9373 236.997 58.1252 237.047 57.2998C236.997 56.4744 237.273 55.6624 237.816 55.0384C238.36 54.4144 239.126 54.0284 239.952 53.9634H273.869C274.691 54.0283 275.455 54.4156 275.992 55.0407C276.53 55.6659 276.798 56.478 276.738 57.2998Z" fill="#595959"/>
<path d="M273.867 61.6518H239.95C238.919 61.5169 237.972 61.012 237.286 60.2313C236.6 59.4506 236.222 58.4474 236.222 57.4087C236.222 56.37 236.6 55.3668 237.286 54.5861C237.972 53.8054 238.919 53.3006 239.95 53.1656H273.867C274.898 53.3006 275.845 53.8054 276.531 54.5861C277.217 55.3668 277.595 56.37 277.595 57.4087C277.595 58.4474 277.217 59.4506 276.531 60.2313C275.845 61.012 274.898 61.5169 273.867 61.6518ZM239.95 54.9789C239.377 55.0782 238.857 55.3764 238.483 55.8209C238.108 56.2654 237.903 56.8277 237.903 57.4087C237.903 57.9897 238.108 58.552 238.483 58.9965C238.857 59.4411 239.377 59.7392 239.95 59.8385H273.867C274.411 59.7048 274.895 59.3927 275.24 58.9523C275.586 58.5118 275.774 57.9683 275.774 57.4087C275.774 56.8491 275.586 56.3056 275.24 55.8652C274.895 55.4247 274.411 55.1127 273.867 54.9789H239.95Z" fill="#B8B8B8"/>
<path d="M327.831 218.247V222.345C327.831 222.345 321.477 241.965 330.918 243.887C348.675 247.513 349.656 225.754 347.913 222.127C341.34 216.724 332.734 217.594 327.831 218.247Z" fill="#F7BE89" fill-opacity="0.8"/>
<path d="M336.508 211.429L327.829 204.502V218.247C332.731 217.449 341.338 216.724 347.802 221.874C344.486 217.937 340.692 214.429 336.508 211.429Z" fill="#F4B078" fill-opacity="0.8"/>
<path d="M327.831 77.9713C327.831 77.9713 362.256 90.6643 367.776 99.7307C373.295 108.797 367.776 113.33 359.605 117.864C351.435 122.397 330.554 123.992 327.903 116.739C327.533 113.122 327.533 109.477 327.903 105.86L327.831 77.9713Z" fill="#F7BE89" fill-opacity="0.8"/>
<path d="M354.265 183.505C352.498 179.684 350.371 176.041 347.911 172.625L327.829 166.496V175.889C332.525 175.074 337.346 175.337 341.926 176.656C346.505 177.975 350.725 180.317 354.265 183.505Z" fill="#F4B078" fill-opacity="0.8"/>
<path d="M327.829 175.889V177.992C327.829 177.992 313.303 216.397 342.899 210.958C361.274 207.585 358.804 193.623 354.265 183.504C350.725 180.317 346.505 177.975 341.925 176.656C337.345 175.337 332.525 175.074 327.829 175.889Z" fill="#F7BE89" fill-opacity="0.8"/>
<path d="M327.831 137.519V145.063C323.582 159.279 319.588 165.916 335.093 172.262C350.599 178.609 353.25 165.009 353.25 165.009C353.25 165.009 356.301 148 354.739 138.68C346.548 133.865 337.321 131.08 327.831 130.556V137.519Z" fill="#F7BE89" fill-opacity="0.8"/>
<path d="M327.829 120.511V130.556C337.282 131.047 346.482 133.782 354.665 138.535C354.478 136.996 353.971 135.514 353.176 134.183C349.109 128.344 327.829 120.511 327.829 120.511Z" fill="#F4B078" fill-opacity="0.8"/>
<path fill-rule="evenodd" clip-rule="evenodd" d="M208.688 138.703C205.926 138.703 203.688 140.941 203.688 143.703V208.236C203.688 210.997 205.926 213.236 208.687 213.236H269.329L280.445 229.922L291.561 213.236H299.918C302.68 213.236 304.918 210.997 304.918 208.236V143.703C304.918 140.941 302.68 138.703 299.918 138.703H208.688Z" fill="#099268"/>
<path d="M238.696 180H235.9C235.708 180 235.552 179.948 235.432 179.844C235.312 179.74 235.216 179.624 235.144 179.496L230.848 172.572C230.816 172.668 230.78 172.76 230.74 172.848C230.708 172.936 230.668 173.02 230.62 173.1L226.468 179.496C226.38 179.624 226.28 179.74 226.168 179.844C226.064 179.948 225.924 180 225.748 180H223.132L228.964 171.12L223.372 162.72H226.156C226.356 162.72 226.5 162.752 226.588 162.816C226.684 162.872 226.768 162.96 226.84 163.08L231.04 169.68C231.08 169.584 231.12 169.488 231.16 169.392C231.2 169.296 231.252 169.196 231.316 169.092L235.228 163.128C235.308 162.992 235.396 162.892 235.492 162.828C235.588 162.756 235.704 162.72 235.84 162.72H238.516L232.876 171L238.696 180ZM254.54 180H251.744C251.552 180 251.396 179.948 251.276 179.844C251.156 179.74 251.06 179.624 250.988 179.496L246.692 172.572C246.66 172.668 246.624 172.76 246.584 172.848C246.552 172.936 246.512 173.02 246.464 173.1L242.312 179.496C242.224 179.624 242.124 179.74 242.012 179.844C241.908 179.948 241.768 180 241.592 180H238.976L244.808 171.12L239.216 162.72H242C242.2 162.72 242.344 162.752 242.432 162.816C242.528 162.872 242.612 162.96 242.684 163.08L246.884 169.68C246.924 169.584 246.964 169.488 247.004 169.392C247.044 169.296 247.096 169.196 247.16 169.092L251.072 163.128C251.152 162.992 251.24 162.892 251.336 162.828C251.432 162.756 251.548 162.72 251.684 162.72H254.36L248.72 171L254.54 180ZM270.384 180H267.588C267.396 180 267.24 179.948 267.12 179.844C267 179.74 266.904 179.624 266.832 179.496L262.536 172.572C262.504 172.668 262.468 172.76 262.428 172.848C262.396 172.936 262.356 173.02 262.308 173.1L258.156 179.496C258.068 179.624 257.968 179.74 257.855 179.844C257.752 179.948 257.612 180 257.436 180H254.82L260.652 171.12L255.06 162.72H257.844C258.044 162.72 258.188 162.752 258.276 162.816C258.372 162.872 258.456 162.96 258.528 163.08L262.728 169.68C262.768 169.584 262.808 169.488 262.848 169.392C262.888 169.296 262.94 169.196 263.004 169.092L266.916 163.128C266.996 162.992 267.084 162.892 267.18 162.828C267.276 162.756 267.392 162.72 267.528 162.72H270.204L264.564 171L270.384 180ZM286.227 180H283.431C283.239 180 283.083 179.948 282.963 179.844C282.843 179.74 282.747 179.624 282.675 179.496L278.379 172.572C278.347 172.668 278.311 172.76 278.271 172.848C278.239 172.936 278.199 173.02 278.151 173.1L273.999 179.496C273.911 179.624 273.811 179.74 273.699 179.844C273.595 179.948 273.455 180 273.279 180H270.663L276.495 171.12L270.903 162.72H273.687C273.887 162.72 274.031 162.752 274.119 162.816C274.215 162.872 274.299 162.96 274.371 163.08L278.571 169.68C278.611 169.584 278.651 169.488 278.691 169.392C278.731 169.296 278.783 169.196 278.847 169.092L282.759 163.128C282.839 162.992 282.927 162.892 283.023 162.828C283.119 162.756 283.235 162.72 283.371 162.72H286.047L280.407 171L286.227 180Z" fill="white"/>
<defs>
<linearGradient id="paint0_linear" x1="277.5" y1="41.0528" x2="338.086" y2="168.045" gradientUnits="userSpaceOnUse">
<stop stop-color="#535353"/>
<stop offset="1" stop-color="#535353"/>
</linearGradient>
</defs>
</svg>
