<svg width="79" height="79" viewBox="0 0 79 79" fill="none" xmlns="http://www.w3.org/2000/svg">
<path d="M77.5 39.1274C77.5 59.895 60.5003 76.7547 39.5 76.7547C18.4997 76.7547 1.5 59.895 1.5 39.1274C1.5 18.3597 18.4997 1.5 39.5 1.5C60.5003 1.5 77.5 18.3597 77.5 39.1274Z" fill="#3DB26C" stroke="#3DB26C" stroke-width="3"/>
<path d="M49.5 30.3L46.35 28.05L42.75 26.7L38.25 27.15L34.65 39.3L27 64.95L31.5 69L38.25 68.55L49.5 30.3Z" stroke="white"/>
<path fill-rule="evenodd" clip-rule="evenodd" d="M48.8314 7.03486C48.5902 7.64896 47.1152 12.3283 45.5539 17.4336L42.7153 26.716L40.6726 26.9053C39.5494 27.0093 38.5843 27.1402 38.5283 27.196C38.3514 27.3723 33.8199 42.2128 33.9144 42.3068C33.9855 42.3776 37.875 37.8884 41.4353 33.6258C41.9437 33.0169 41.9523 33.0408 41.8703 34.8112C41.8239 35.8048 41.8839 36.6177 42.0037 36.6174C42.1234 36.6171 42.222 36.5191 42.2232 36.4001C42.2244 36.281 43.2388 34.3555 44.4774 32.1216C46.6544 28.1945 46.8339 27.7171 49.8879 17.7278L53.0466 7.39552L52.4515 6.80222C52.1009 6.45283 51.3249 6.14939 50.5633 6.06385C49.2867 5.92051 49.2647 5.93265 48.8314 7.03486ZM33.8892 68.8951C34.1714 68.9685 34.5629 68.9636 34.7592 68.8844C34.9555 68.8052 34.7247 68.7454 34.2462 68.7512C33.7677 68.7569 33.607 68.8217 33.8892 68.8951Z" fill="white"/>
</svg>
